# Blender 3.1.0
# www.blender.org
o Cube.008
v 0.520067 0.080592 -1.417291
v 0.104989 0.126247 -0.364588
v 0.639294 0.089730 -0.326755
v 0.183022 0.045532 0.077390
v 0.730019 -0.023712 0.360723
v -0.070804 0.104582 0.269564
v -0.966100 -0.204705 0.700240
v -0.350999 0.108158 0.453823
v -0.360626 0.167434 0.054056
v -0.630516 0.115706 0.906906
v -0.920012 -0.032221 0.615521
v -0.186634 0.159705 0.482666
v 0.088887 -0.040713 -0.872987
v -0.255783 -0.077468 -0.835558
v 0.389598 0.074711 -0.264310
v -0.299857 0.079164 -1.069205
v 0.257955 0.138327 -0.199865
v 0.308619 0.051603 0.023426
v 0.423020 0.058802 -0.644618
v 0.606539 0.035449 -0.450366
v 0.253092 0.111320 0.056183
v 0.026573 0.101933 -1.208741
v -0.029733 0.097965 -0.925981
v 0.897101 0.088164 -0.620874
v 0.600605 0.211386 0.563875
v -0.003940 0.271218 0.286481
v 0.603324 0.189491 0.621379
v 0.246183 0.057729 1.017989
v 0.309140 0.145222 0.472413
v 0.848094 0.066677 0.588179
v 0.269060 -0.006264 1.026133
v 0.340003 -0.039942 1.048304
v 0.381227 0.102767 0.330524
v -0.466235 0.329435 1.048758
v 0.733505 0.238380 0.823884
v 0.058538 0.375989 1.092497
v -0.293533 0.208277 -0.279162
v 0.476790 0.148914 0.425754
v 0.115576 0.072905 0.117920
v -0.917320 -0.010073 -0.196204
v -0.991080 0.244949 0.428468
v -0.367391 0.142980 0.147467
v -0.507287 -0.180908 -0.369959
v -0.415490 0.201048 0.170203
v -0.054422 -0.107114 -0.184568
vn -0.0693 -0.9975 0.0159
vn 0.1667 0.9826 -0.0817
vn -0.4023 0.9042 0.1438
vn 0.2815 -0.9391 0.1971
vn -0.1189 0.9846 -0.1280
vn 0.6801 -0.6180 -0.3943
vn 0.1621 0.9862 -0.0346
vn 0.0056 0.9999 0.0151
vn 0.0721 -0.9310 -0.3579
vn -0.1064 -0.9798 -0.1694
vn -0.3679 -0.9077 -0.2016
vn -0.0325 0.8541 -0.5192
vn -0.6596 0.1606 0.7343
vn -0.0200 0.9248 -0.3799
vn 0.1092 0.8028 -0.5862
vt 0.584858 0.250000
vt 0.567308 0.164829
vt 0.541567 0.219246
vt 0.500260 0.115728
vt 0.516618 0.156722
vt 0.524843 0.103028
vt 0.454080 0.000000
vt 0.494078 0.098734
vt 0.425490 0.098734
vt 0.420110 0.000000
vt 0.454080 0.000000
vt 0.425490 0.098734
vt 0.484120 0.250000
vt 0.448594 0.250000
vt 0.481366 0.164829
vt 0.484120 0.250000
vt 0.481366 0.164829
vt 0.513793 0.164829
vt 0.504593 0.230185
vt 0.541567 0.219246
vt 0.521211 0.168233
vt 0.527019 0.250000
vt 0.504593 0.230185
vt 0.541567 0.219246
vt 0.550005 0.060889
vt 0.539854 0.098734
vt 0.598574 0.098734
vt 0.534554 0.042053
vt 0.550005 0.060889
vt 0.525527 0.098734
vt 0.566338 0.000000
vt 0.534554 0.042053
vt 0.550005 0.060889
vt 0.454080 0.000000
vt 0.521662 0.060106
vt 0.538752 0.015694
vt 0.516618 0.156722
vt 0.535324 0.103028
vt 0.524843 0.103028
vt 0.384926 0.098734
vt 0.381035 0.048023
vt 0.425490 0.098734
vt 0.389998 0.164829
vt 0.425724 0.103028
vt 0.429092 0.164829
s 0
f 3/3/1 2/2/1 1/1/1
f 4/4/2 6/6/2 5/5/2
f 7/7/3 8/8/3 9/9/3
f 11/11/4 12/12/4 10/10/4
f 15/15/5 13/13/5 14/14/5
f 17/17/6 18/18/6 16/16/6
f 19/19/7 21/21/7 20/20/7
f 23/23/8 24/24/8 22/22/8
f 27/27/9 26/26/9 25/25/9
f 30/30/10 28/28/10 29/29/10
f 31/31/11 33/33/11 32/32/11
f 36/36/12 35/35/12 34/34/12
f 37/37/13 39/39/13 38/38/13
f 42/42/14 40/40/14 41/41/14
f 43/43/15 44/44/15 45/45/15
